# xmcd CD database file
#
# Track frame offsets:
#	150
#	26594
#	50122
#	64263
#	75543
#	88071
#	101771
#	122910
#	131507
#	152397
#	164867
#	177938
#	190128
#	205600
#	223407
#	233741
#
# Disc length: 3283 seconds
#
# Revision: 0
# Processed by: cddbd v1.5.1PL0 Copyright (c) Steve Scherf et al.
# Submitted via: CDex 1.51
#
DISCID=e50cd110
DTITLE=Various Artist - Jazz Edition CD2
DYEAR=2003
DGENRE=Jazz
TTITLE0=Ella Fitzgerald and Louis Armstrong - Cheek to Cheek
TTITLE1=Love Unlimited Orchestra - Midnight and You
TTITLE2=Oscar Brown Jr - Beautiful Girl
TTITLE3=Dinah Washington - What a Difference a Day Makes
TTITLE4=Laura Fygi - Let There Be Love
TTITLE5=Toni Harper - A Foggy DAy
TTITLE6=Till Brönner - Have You Met Chet?
TTITLE7=The Platters - On a Slow Boat to China
TTITLE8=Cal Tjaders - Soul Burst (Guajera)
TTITLE9=Blossom Dearie - Lover Man
TTITLE10=Billie Holiday - That Old Devil Called Love
TTITLE11=Chet Baker  - The Touch Of Your Lips
TTITLE12=Sarah Vaughan - Gone With the Wind
TTITLE13=Ray Brown All of You
TTITLE14=Steve Gibson - I Love You
TTITLE15=Joe Liggins - They Were Doing the Mambo
EXTD=YEAR: 2003
EXTT0=
EXTT1=
EXTT2=
EXTT3=
EXTT4=
EXTT5=
EXTT6=
EXTT7=
EXTT8=
EXTT9=
EXTT10=
EXTT11=
EXTT12=
EXTT13=
EXTT14=
EXTT15=
PLAYORDER=
